<svg width="61" height="46" viewBox="0 0 61 46" fill="none" xmlns="http://www.w3.org/2000/svg">
<rect x="33" width="28" height="41" fill="#FFE500"/>
<rect y="12" width="28" height="29" fill="#FFE500"/>
<path d="M39.08 32V11.072H43.176L45.672 19.232L46.536 22.368H46.664L47.496 19.232L50.024 11.072H54.12V32H50.856V23.552C50.856 22.9973 50.8667 22.3467 50.888 21.6C50.9307 20.832 50.984 20.032 51.048 19.2C51.112 18.368 51.176 17.5893 51.24 16.864C51.304 16.1173 51.3573 15.488 51.4 14.976H51.304L49.896 19.84L47.592 26.464H45.48L43.208 19.84L41.832 14.976H41.736C41.8 15.488 41.864 16.1173 41.928 16.864C41.992 17.5893 42.0453 18.368 42.088 19.2C42.152 20.032 42.1947 20.832 42.216 21.6C42.2587 22.3467 42.28 22.9973 42.28 23.552V32H39.08Z" fill="black"/>
<path d="M15.328 37.384C14.0267 37.384 12.8 37.1493 11.648 36.68C10.5173 36.2107 9.51467 35.5173 8.64 34.6C7.78667 33.6827 7.11467 32.552 6.624 31.208C6.15467 29.864 5.92 28.328 5.92 26.6C5.92 24.3173 6.336 22.3653 7.168 20.744C8.02133 19.1013 9.17333 17.8533 10.624 17C12.096 16.1253 13.7493 15.688 15.584 15.688C16.8853 15.688 18.048 15.9547 19.072 16.488C20.096 17.0213 20.928 17.6293 21.568 18.312L19.52 20.616C19.008 20.0827 18.432 19.6667 17.792 19.368C17.152 19.0693 16.416 18.92 15.584 18.92C14.432 18.92 13.408 19.2293 12.512 19.848C11.6373 20.4453 10.9547 21.3093 10.464 22.44C9.97333 23.5707 9.728 24.9253 9.728 26.504C9.728 28.0827 9.97333 29.448 10.464 30.6C10.9547 31.752 11.648 32.6373 12.544 33.256C13.44 33.8533 14.4853 34.152 15.68 34.152C16.5547 34.152 17.3333 33.9707 18.016 33.608C18.6987 33.224 19.3387 32.712 19.936 32.072L21.984 34.344C21.152 35.3253 20.1813 36.0827 19.072 36.616C17.9627 37.128 16.7147 37.384 15.328 37.384Z" fill="black"/>
</svg>
